<svg width="77" height="21" viewBox="0 0 77 21" fill="none" xmlns="http://www.w3.org/2000/svg">
<path d="M3.104 17H1.064C0.728 17 0.56 16.832 0.56 16.496V2.072C0.56 1.736 0.728 1.568 1.064 1.568H6.92C8.168 1.568 9.136 1.912 9.824 2.6C10.512 3.272 10.856 4.232 10.856 5.48V7.784C10.856 9.032 10.512 10 9.824 10.688C9.136 11.36 8.168 11.696 6.92 11.696H3.896C3.704 11.696 3.608 11.784 3.608 11.96V16.496C3.608 16.832 3.44 17 3.104 17ZM3.872 9.032H6.416C6.928 9.032 7.288 8.928 7.496 8.72C7.704 8.496 7.808 8.136 7.808 7.64V5.624C7.808 5.112 7.704 4.752 7.496 4.544C7.288 4.32 6.928 4.208 6.416 4.208H3.872C3.696 4.208 3.608 4.296 3.608 4.472V8.768C3.608 8.944 3.696 9.032 3.872 9.032ZM17.6786 17H13.1186C12.7986 17 12.6386 16.832 12.6386 16.496V14.96C12.6386 14.784 12.6706 14.664 12.7346 14.6C12.7986 14.52 12.9266 14.48 13.1186 14.48H17.1266C17.9106 14.48 18.3026 14.24 18.3026 13.76V13.64C18.3026 13.256 17.9746 12.888 17.3186 12.536L14.9426 11.216C14.1266 10.8 13.5266 10.352 13.1426 9.872C12.7586 9.392 12.5666 8.776 12.5666 8.024C12.5666 6.904 12.8626 6.08 13.4546 5.552C14.0466 5.024 14.9746 4.76 16.2386 4.76H20.2466C20.5666 4.76 20.7266 4.928 20.7266 5.264V6.824C20.7266 7 20.6946 7.128 20.6306 7.208C20.5666 7.272 20.4386 7.304 20.2466 7.304H16.9106C16.1266 7.304 15.7346 7.504 15.7346 7.904V8.024C15.7346 8.376 16.0786 8.736 16.7666 9.104L19.1906 10.544C20.0226 10.992 20.6066 11.456 20.9426 11.936C21.2786 12.4 21.4466 13.016 21.4466 13.784C21.4466 15.928 20.1906 17 17.6786 17ZM23.69 2.696V0.607999C23.69 0.288 23.85 0.128 24.17 0.128H26.258C26.578 0.128 26.738 0.28 26.738 0.584V2.696C26.738 3.016 26.578 3.176 26.258 3.176H24.17C23.85 3.176 23.69 3.016 23.69 2.696ZM23.69 16.496V5.264C23.69 4.928 23.85 4.76 24.17 4.76H26.234C26.57 4.76 26.738 4.928 26.738 5.264V16.496C26.738 16.704 26.698 16.84 26.618 16.904C26.554 16.968 26.434 17 26.258 17H24.194C23.858 17 23.69 16.832 23.69 16.496ZM31.3477 17H29.0437C28.7557 17 28.6597 16.832 28.7557 16.496L32.5477 2.072C32.6597 1.736 32.8997 1.568 33.2677 1.568H36.4597C36.8597 1.568 37.0997 1.736 37.1797 2.072L40.9717 16.496C41.0677 16.832 40.9717 17 40.6837 17H38.3797C38.2037 17 38.0837 16.968 38.0197 16.904C37.9557 16.824 37.9077 16.688 37.8757 16.496L37.2037 13.856H32.5237L31.8517 16.496C31.8197 16.688 31.7637 16.824 31.6837 16.904C31.6197 16.968 31.5077 17 31.3477 17ZM34.8277 4.472L33.0997 11.408H36.6517L34.9237 4.472H34.8277ZM45.4031 20.264H43.3631C43.0271 20.264 42.8591 20.104 42.8591 19.784V5.264C42.8591 4.928 43.0271 4.76 43.3631 4.76H45.4031C45.7391 4.76 45.9071 4.928 45.9071 5.264V6.056H46.0031C46.1791 5.624 46.4911 5.304 46.9391 5.096C47.3871 4.872 47.8591 4.76 48.3551 4.76H49.3391C50.5711 4.76 51.4991 5.096 52.1231 5.768C52.7631 6.44 53.0831 7.408 53.0831 8.672V13.088C53.0831 14.352 52.7631 15.32 52.1231 15.992C51.4991 16.664 50.5711 17 49.3391 17H48.3551C47.8591 17 47.3871 16.896 46.9391 16.688C46.4911 16.464 46.1791 16.136 46.0031 15.704H45.9071V19.784C45.9071 20.104 45.7391 20.264 45.4031 20.264ZM47.5631 14.36H48.6191C49.1311 14.36 49.4911 14.256 49.6991 14.048C49.9231 13.824 50.0351 13.456 50.0351 12.944V8.816C50.0351 8.304 49.9231 7.944 49.6991 7.736C49.4911 7.512 49.1311 7.4 48.6191 7.4H47.5631C46.4591 7.4 45.9071 8.008 45.9071 9.224V12.536C45.9071 13.752 46.4591 14.36 47.5631 14.36ZM58.0359 20.264H55.9959C55.6599 20.264 55.4919 20.104 55.4919 19.784V5.264C55.4919 4.928 55.6599 4.76 55.9959 4.76H58.0359C58.3719 4.76 58.5399 4.928 58.5399 5.264V6.056H58.6359C58.8119 5.624 59.1239 5.304 59.5719 5.096C60.0199 4.872 60.4919 4.76 60.9879 4.76H61.9719C63.2039 4.76 64.1319 5.096 64.7559 5.768C65.3959 6.44 65.7159 7.408 65.7159 8.672V13.088C65.7159 14.352 65.3959 15.32 64.7559 15.992C64.1319 16.664 63.2039 17 61.9719 17H60.9879C60.4919 17 60.0199 16.896 59.5719 16.688C59.1239 16.464 58.8119 16.136 58.6359 15.704H58.5399V19.784C58.5399 20.104 58.3719 20.264 58.0359 20.264ZM60.1959 14.36H61.2519C61.7639 14.36 62.1239 14.256 62.3319 14.048C62.5559 13.824 62.6679 13.456 62.6679 12.944V8.816C62.6679 8.304 62.5559 7.944 62.3319 7.736C62.1239 7.512 61.7639 7.4 61.2519 7.4H60.1959C59.0919 7.4 58.5399 8.008 58.5399 9.224V12.536C58.5399 13.752 59.0919 14.36 60.1959 14.36ZM72.7567 17H68.1967C67.8767 17 67.7167 16.832 67.7167 16.496V14.96C67.7167 14.784 67.7487 14.664 67.8127 14.6C67.8767 14.52 68.0047 14.48 68.1967 14.48H72.2047C72.9887 14.48 73.3807 14.24 73.3807 13.76V13.64C73.3807 13.256 73.0527 12.888 72.3967 12.536L70.0207 11.216C69.2047 10.8 68.6047 10.352 68.2207 9.872C67.8367 9.392 67.6447 8.776 67.6447 8.024C67.6447 6.904 67.9407 6.08 68.5327 5.552C69.1247 5.024 70.0527 4.76 71.3167 4.76H75.3247C75.6447 4.76 75.8047 4.928 75.8047 5.264V6.824C75.8047 7 75.7727 7.128 75.7087 7.208C75.6447 7.272 75.5167 7.304 75.3247 7.304H71.9887C71.2047 7.304 70.8127 7.504 70.8127 7.904V8.024C70.8127 8.376 71.1567 8.736 71.8447 9.104L74.2687 10.544C75.1007 10.992 75.6847 11.456 76.0207 11.936C76.3567 12.4 76.5247 13.016 76.5247 13.784C76.5247 15.928 75.2687 17 72.7567 17Z" fill="black"/>
</svg>
